<mxfile host="Electron" agent="Mozilla/5.0 (Windows NT 10.0; Win64; x64) AppleWebKit/537.36 (KHTML, like Gecko) draw.io/26.2.2 Chrome/134.0.6998.178 Electron/35.1.2 Safari/537.36" version="26.2.2" pages="2">
  <diagram name="Activity-1" id="e7e014a7-5840-1c2e-5031-d8a46d1fe8dd">
    <mxGraphModel dx="3002" dy="894" grid="1" gridSize="10" guides="1" tooltips="1" connect="1" arrows="1" fold="1" page="1" pageScale="1" pageWidth="1169" pageHeight="826" background="none" math="0" shadow="0">
      <root>
        <mxCell id="0" />
        <mxCell id="1" parent="0" />
        <mxCell id="2" value="Quản lý xe bus" style="swimlane;whiteSpace=wrap;startSize=32;" parent="1" vertex="1">
          <mxGeometry x="-395.5" y="128" width="385.5" height="992" as="geometry" />
        </mxCell>
        <mxCell id="Bgbd8PivBBbhyu42Q39o-90" value="Theo dõi hành trình và báo cáo" style="rounded=1;whiteSpace=wrap;html=1;" parent="2" vertex="1">
          <mxGeometry x="68" y="833" width="210" height="30" as="geometry" />
        </mxCell>
        <mxCell id="Bgbd8PivBBbhyu42Q39o-92" value="" style="ellipse;html=1;shape=endState;fillColor=#000000;strokeColor=#ff0000;" parent="2" vertex="1">
          <mxGeometry x="150.5" y="892" width="30" height="30" as="geometry" />
        </mxCell>
        <mxCell id="Bgbd8PivBBbhyu42Q39o-93" value="" style="endArrow=classic;html=1;rounded=0;exitX=0.461;exitY=1.059;exitDx=0;exitDy=0;strokeColor=#FF0000;entryX=0.5;entryY=0;entryDx=0;entryDy=0;exitPerimeter=0;" parent="2" source="Bgbd8PivBBbhyu42Q39o-90" target="Bgbd8PivBBbhyu42Q39o-92" edge="1">
          <mxGeometry width="50" height="50" relative="1" as="geometry">
            <mxPoint x="840.5" y="386" as="sourcePoint" />
            <mxPoint x="840.5" y="483" as="targetPoint" />
            <Array as="points" />
          </mxGeometry>
        </mxCell>
        <mxCell id="5" value="" style="ellipse;shape=startState;fillColor=#000000;strokeColor=#ff0000;" parent="2" vertex="1">
          <mxGeometry x="140.75" y="53" width="30" height="30" as="geometry" />
        </mxCell>
        <mxCell id="6" value="" style="edgeStyle=elbowEdgeStyle;elbow=horizontal;verticalAlign=bottom;endArrow=open;endSize=8;strokeColor=#FF0000;endFill=1;rounded=0" parent="2" source="5" edge="1">
          <mxGeometry x="159" y="152" as="geometry">
            <mxPoint x="155.57692307692287" y="103" as="targetPoint" />
          </mxGeometry>
        </mxCell>
        <mxCell id="U9yI46RcE3ADirqVQNzg-45" value="" style="endArrow=open;strokeColor=#FF0000;endFill=1;rounded=0;exitX=0.5;exitY=1;exitDx=0;exitDy=0;entryX=0.5;entryY=0;entryDx=0;entryDy=0;" parent="2" edge="1">
          <mxGeometry relative="1" as="geometry">
            <mxPoint x="155.75" y="131" as="sourcePoint" />
            <mxPoint x="155.75" y="149" as="targetPoint" />
          </mxGeometry>
        </mxCell>
        <mxCell id="1uhrgHvxH36PsTR4rErv-28" value="&lt;span style=&quot;text-wrap-mode: nowrap;&quot;&gt;Xem danh sách học sinh, tài xế, phương tiện&lt;/span&gt;" style="rounded=1;whiteSpace=wrap;html=1;" parent="2" vertex="1">
          <mxGeometry x="28.5" y="102" width="254.5" height="30" as="geometry" />
        </mxCell>
        <mxCell id="1uhrgHvxH36PsTR4rErv-29" value="&lt;span style=&quot;text-wrap-mode: nowrap;&quot;&gt;Phân công tài xế và xe cho tuyến&lt;/span&gt;" style="rounded=1;whiteSpace=wrap;html=1;" parent="2" vertex="1">
          <mxGeometry x="31.5" y="150" width="236.5" height="30" as="geometry" />
        </mxCell>
        <mxCell id="3" value="Tài xế" style="swimlane;whiteSpace=wrap;startSize=32;" parent="1" vertex="1">
          <mxGeometry x="-10" y="128" width="350" height="992" as="geometry" />
        </mxCell>
        <mxCell id="Bgbd8PivBBbhyu42Q39o-52" value="" style="endArrow=classic;html=1;rounded=0;exitX=0.5;exitY=1;exitDx=0;exitDy=0;strokeColor=#FF0000;entryX=0.5;entryY=0;entryDx=0;entryDy=0;" parent="3" source="1uhrgHvxH36PsTR4rErv-30" target="1uhrgHvxH36PsTR4rErv-31" edge="1">
          <mxGeometry width="50" height="50" relative="1" as="geometry">
            <mxPoint x="140" y="224" as="sourcePoint" />
            <mxPoint x="160" y="242" as="targetPoint" />
            <Array as="points" />
          </mxGeometry>
        </mxCell>
        <mxCell id="Bgbd8PivBBbhyu42Q39o-68" value="Đã đón&lt;div&gt;học sinh chưa?&lt;/div&gt;" style="rhombus;whiteSpace=wrap;html=1;fontColor=#000000;fillColor=#ffffc0;strokeColor=#ff0000;" parent="3" vertex="1">
          <mxGeometry x="105" y="485" width="140" height="68" as="geometry" />
        </mxCell>
        <mxCell id="Bgbd8PivBBbhyu42Q39o-70" value="yes" style="edgeStyle=orthogonalEdgeStyle;html=1;align=left;verticalAlign=top;endArrow=open;endSize=8;strokeColor=#ff0000;rounded=0;exitX=0;exitY=0.5;exitDx=0;exitDy=0;entryX=0.5;entryY=0;entryDx=0;entryDy=0;" parent="3" source="Bgbd8PivBBbhyu42Q39o-68" target="Bgbd8PivBBbhyu42Q39o-72" edge="1">
          <mxGeometry x="-0.2275" y="-30" relative="1" as="geometry">
            <mxPoint x="60" y="513" as="targetPoint" />
            <mxPoint as="offset" />
          </mxGeometry>
        </mxCell>
        <mxCell id="Bgbd8PivBBbhyu42Q39o-72" value="Báo cáo đã đón&lt;span style=&quot;background-color: transparent; color: light-dark(rgb(0, 0, 0), rgb(255, 255, 255));&quot;&gt;&amp;nbsp;học sinh&lt;/span&gt;" style="rounded=1;whiteSpace=wrap;html=1;" parent="3" vertex="1">
          <mxGeometry x="10" y="578" width="100" height="30" as="geometry" />
        </mxCell>
        <mxCell id="Bgbd8PivBBbhyu42Q39o-73" value="Báo cáo sự cố" style="rounded=1;whiteSpace=wrap;html=1;" parent="3" vertex="1">
          <mxGeometry x="220" y="537" width="110" height="30" as="geometry" />
        </mxCell>
        <mxCell id="Bgbd8PivBBbhyu42Q39o-80" value="Trả học sinh tại điểm trả" style="rounded=1;whiteSpace=wrap;html=1;" parent="3" vertex="1">
          <mxGeometry x="86" y="690" width="210" height="30" as="geometry" />
        </mxCell>
        <mxCell id="1uhrgHvxH36PsTR4rErv-23" value="" style="endArrow=classic;html=1;rounded=0;exitX=1;exitY=0.5;exitDx=0;exitDy=0;strokeColor=#FF0000;entryX=0.5;entryY=0;entryDx=0;entryDy=0;" parent="3" source="Bgbd8PivBBbhyu42Q39o-68" target="Bgbd8PivBBbhyu42Q39o-73" edge="1">
          <mxGeometry width="50" height="50" relative="1" as="geometry">
            <mxPoint x="300" y="484" as="sourcePoint" />
            <mxPoint x="300" y="508" as="targetPoint" />
            <Array as="points">
              <mxPoint x="275" y="519" />
            </Array>
          </mxGeometry>
        </mxCell>
        <mxCell id="1uhrgHvxH36PsTR4rErv-24" value="no" style="text;html=1;align=center;verticalAlign=middle;resizable=0;points=[];autosize=1;strokeColor=none;fillColor=none;" parent="3" vertex="1">
          <mxGeometry x="240" y="492" width="40" height="30" as="geometry" />
        </mxCell>
        <mxCell id="Bgbd8PivBBbhyu42Q39o-96" value="" style="endArrow=classic;html=1;rounded=0;exitX=0.5;exitY=1;exitDx=0;exitDy=0;strokeColor=#FF0000;entryX=0.5;entryY=0;entryDx=0;entryDy=0;" parent="3" source="Bgbd8PivBBbhyu42Q39o-66" target="Bgbd8PivBBbhyu42Q39o-68" edge="1">
          <mxGeometry width="50" height="50" relative="1" as="geometry">
            <mxPoint x="648" y="386" as="sourcePoint" />
            <mxPoint x="648" y="413" as="targetPoint" />
            <Array as="points">
              <mxPoint x="890" y="472" />
              <mxPoint x="175" y="472" />
            </Array>
          </mxGeometry>
        </mxCell>
        <mxCell id="1uhrgHvxH36PsTR4rErv-30" value="&lt;span style=&quot;text-wrap-mode: nowrap;&quot;&gt;Xem lịch làm việc&lt;/span&gt;&lt;br style=&quot;padding: 0px; margin: 0px; text-wrap-mode: nowrap;&quot;&gt;&lt;span style=&quot;text-wrap-mode: nowrap;&quot;&gt;và danh sách học sinh&lt;/span&gt;" style="rounded=1;whiteSpace=wrap;html=1;" parent="3" vertex="1">
          <mxGeometry x="43.5" y="182" width="236.5" height="30" as="geometry" />
        </mxCell>
        <mxCell id="1uhrgHvxH36PsTR4rErv-31" value="&lt;span style=&quot;text-wrap-mode: nowrap;&quot;&gt;Khởi hành&lt;/span&gt;" style="rounded=1;whiteSpace=wrap;html=1;" parent="3" vertex="1">
          <mxGeometry x="43.5" y="234" width="236.5" height="30" as="geometry" />
        </mxCell>
        <mxCell id="4" value="Phụ huynh" style="swimlane;whiteSpace=wrap;startSize=32;" parent="1" vertex="1">
          <mxGeometry x="730.5" y="128" width="280" height="992" as="geometry" />
        </mxCell>
        <mxCell id="Bgbd8PivBBbhyu42Q39o-66" value="Theo dõi vị trí xe" style="rounded=1;whiteSpace=wrap;html=1;" parent="4" vertex="1">
          <mxGeometry x="55" y="419" width="189.5" height="30" as="geometry" />
        </mxCell>
        <mxCell id="Bgbd8PivBBbhyu42Q39o-91" value="Nhận thông báo" style="rounded=1;whiteSpace=wrap;html=1;" parent="4" vertex="1">
          <mxGeometry x="54" y="833" width="189.5" height="30" as="geometry" />
        </mxCell>
        <mxCell id="Bgbd8PivBBbhyu42Q39o-94" value="" style="ellipse;html=1;shape=endState;fillColor=#000000;strokeColor=#ff0000;" parent="4" vertex="1">
          <mxGeometry x="133.75" y="890" width="30" height="30" as="geometry" />
        </mxCell>
        <mxCell id="Bgbd8PivBBbhyu42Q39o-95" value="" style="endArrow=classic;html=1;rounded=0;exitX=0.5;exitY=1;exitDx=0;exitDy=0;strokeColor=#FF0000;" parent="4" edge="1">
          <mxGeometry width="50" height="50" relative="1" as="geometry">
            <mxPoint x="148.54999999999995" y="863" as="sourcePoint" />
            <mxPoint x="148.54999999999995" y="890" as="targetPoint" />
            <Array as="points" />
          </mxGeometry>
        </mxCell>
        <mxCell id="1uhrgHvxH36PsTR4rErv-25" value="Nhận thông báo" style="rounded=1;whiteSpace=wrap;html=1;" parent="4" vertex="1">
          <mxGeometry x="54" y="634" width="210" height="30" as="geometry" />
        </mxCell>
        <mxCell id="Bgbd8PivBBbhyu42Q39o-43" value="Hệ thống" style="swimlane;whiteSpace=wrap;startSize=32;" parent="1" vertex="1">
          <mxGeometry x="340" y="128" width="390" height="992" as="geometry" />
        </mxCell>
        <mxCell id="Bgbd8PivBBbhyu42Q39o-55" value="" style="shape=line;html=1;strokeWidth=6;strokeColor=#ff0000;" parent="Bgbd8PivBBbhyu42Q39o-43" vertex="1">
          <mxGeometry x="60" y="295" width="260" height="10" as="geometry" />
        </mxCell>
        <mxCell id="Bgbd8PivBBbhyu42Q39o-57" value="" style="shape=line;html=1;strokeWidth=6;strokeColor=#ff0000;" parent="Bgbd8PivBBbhyu42Q39o-43" vertex="1">
          <mxGeometry x="60" y="378" width="260" height="10" as="geometry" />
        </mxCell>
        <mxCell id="Bgbd8PivBBbhyu42Q39o-60" value="" style="endArrow=classic;html=1;rounded=0;exitX=0.134;exitY=0.504;exitDx=0;exitDy=0;strokeColor=#FF0000;exitPerimeter=0;entryX=0.5;entryY=0;entryDx=0;entryDy=0;" parent="Bgbd8PivBBbhyu42Q39o-43" source="Bgbd8PivBBbhyu42Q39o-55" target="Bgbd8PivBBbhyu42Q39o-61" edge="1">
          <mxGeometry width="50" height="50" relative="1" as="geometry">
            <mxPoint x="97.92000000000007" y="323" as="sourcePoint" />
            <mxPoint x="98" y="373" as="targetPoint" />
            <Array as="points" />
          </mxGeometry>
        </mxCell>
        <mxCell id="Bgbd8PivBBbhyu42Q39o-59" value="" style="endArrow=classic;html=1;rounded=0;exitX=0.876;exitY=0.713;exitDx=0;exitDy=0;strokeColor=#FF0000;exitPerimeter=0;entryX=0.5;entryY=0;entryDx=0;entryDy=0;" parent="Bgbd8PivBBbhyu42Q39o-43" source="Bgbd8PivBBbhyu42Q39o-55" target="Bgbd8PivBBbhyu42Q39o-62" edge="1">
          <mxGeometry width="50" height="50" relative="1" as="geometry">
            <mxPoint x="285.0799999999999" y="301" as="sourcePoint" />
            <mxPoint x="285" y="351" as="targetPoint" />
            <Array as="points" />
          </mxGeometry>
        </mxCell>
        <mxCell id="Bgbd8PivBBbhyu42Q39o-61" value="Cập nhật vị trí" style="rounded=1;whiteSpace=wrap;html=1;" parent="Bgbd8PivBBbhyu42Q39o-43" vertex="1">
          <mxGeometry x="40" y="324" width="110" height="30" as="geometry" />
        </mxCell>
        <mxCell id="Bgbd8PivBBbhyu42Q39o-62" value="Gửi thông báo xe gần điểm đón" style="rounded=1;whiteSpace=wrap;html=1;" parent="Bgbd8PivBBbhyu42Q39o-43" vertex="1">
          <mxGeometry x="198" y="324" width="180" height="30" as="geometry" />
        </mxCell>
        <mxCell id="Bgbd8PivBBbhyu42Q39o-64" value="" style="endArrow=classic;html=1;rounded=0;exitX=0.5;exitY=1;exitDx=0;exitDy=0;strokeColor=#FF0000;" parent="Bgbd8PivBBbhyu42Q39o-43" source="Bgbd8PivBBbhyu42Q39o-61" edge="1">
          <mxGeometry width="50" height="50" relative="1" as="geometry">
            <mxPoint x="105" y="310" as="sourcePoint" />
            <mxPoint x="95" y="381" as="targetPoint" />
            <Array as="points" />
          </mxGeometry>
        </mxCell>
        <mxCell id="Bgbd8PivBBbhyu42Q39o-65" value="" style="endArrow=classic;html=1;rounded=0;exitX=0.5;exitY=1;exitDx=0;exitDy=0;strokeColor=#FF0000;" parent="Bgbd8PivBBbhyu42Q39o-43" source="Bgbd8PivBBbhyu42Q39o-62" edge="1">
          <mxGeometry width="50" height="50" relative="1" as="geometry">
            <mxPoint x="105" y="364" as="sourcePoint" />
            <mxPoint x="288" y="381" as="targetPoint" />
            <Array as="points" />
          </mxGeometry>
        </mxCell>
        <mxCell id="Bgbd8PivBBbhyu42Q39o-78" value="Nhận báo cáo và cập nhật" style="rounded=1;whiteSpace=wrap;html=1;" parent="Bgbd8PivBBbhyu42Q39o-43" vertex="1">
          <mxGeometry x="80" y="575" width="210" height="30" as="geometry" />
        </mxCell>
        <mxCell id="Bgbd8PivBBbhyu42Q39o-83" value="Nhận báo cáo và cập nhật" style="rounded=1;whiteSpace=wrap;html=1;" parent="Bgbd8PivBBbhyu42Q39o-43" vertex="1">
          <mxGeometry x="90" y="747" width="210" height="30" as="geometry" />
        </mxCell>
        <mxCell id="Bgbd8PivBBbhyu42Q39o-87" value="" style="shape=line;html=1;strokeWidth=6;strokeColor=#ff0000;" parent="Bgbd8PivBBbhyu42Q39o-43" vertex="1">
          <mxGeometry x="70" y="793" width="260" height="10" as="geometry" />
        </mxCell>
        <mxCell id="Bgbd8PivBBbhyu42Q39o-86" value="" style="endArrow=classic;html=1;rounded=0;exitX=0.5;exitY=1;exitDx=0;exitDy=0;strokeColor=#FF0000;entryX=0.48;entryY=0.271;entryDx=0;entryDy=0;entryPerimeter=0;" parent="Bgbd8PivBBbhyu42Q39o-43" source="Bgbd8PivBBbhyu42Q39o-83" target="Bgbd8PivBBbhyu42Q39o-87" edge="1">
          <mxGeometry width="50" height="50" relative="1" as="geometry">
            <mxPoint x="115" y="396" as="sourcePoint" />
            <mxPoint x="195" y="793" as="targetPoint" />
            <Array as="points" />
          </mxGeometry>
        </mxCell>
        <mxCell id="Bgbd8PivBBbhyu42Q39o-51" value="" style="endArrow=classic;html=1;rounded=0;exitX=1;exitY=0.5;exitDx=0;exitDy=0;fillColor=#FF0000;strokeColor=#FF0000;entryX=0.5;entryY=0;entryDx=0;entryDy=0;" parent="1" target="1uhrgHvxH36PsTR4rErv-30" edge="1">
          <mxGeometry width="50" height="50" relative="1" as="geometry">
            <mxPoint x="-127.25" y="292" as="sourcePoint" />
            <mxPoint x="145" y="302" as="targetPoint" />
            <Array as="points">
              <mxPoint x="152" y="292" />
            </Array>
          </mxGeometry>
        </mxCell>
        <mxCell id="Bgbd8PivBBbhyu42Q39o-54" value="" style="endArrow=classic;html=1;rounded=0;exitX=0.5;exitY=1;exitDx=0;exitDy=0;fillColor=#FF0000;strokeColor=#FF0000;entryX=0.497;entryY=0.212;entryDx=0;entryDy=0;entryPerimeter=0;" parent="1" source="1uhrgHvxH36PsTR4rErv-31" target="Bgbd8PivBBbhyu42Q39o-55" edge="1">
          <mxGeometry width="50" height="50" relative="1" as="geometry">
            <mxPoint x="151.74999999999977" y="370" as="sourcePoint" />
            <mxPoint x="450.34784731657606" y="409" as="targetPoint" />
            <Array as="points">
              <mxPoint x="152" y="400" />
              <mxPoint x="530" y="400" />
            </Array>
          </mxGeometry>
        </mxCell>
        <mxCell id="Bgbd8PivBBbhyu42Q39o-67" value="" style="endArrow=classic;html=1;rounded=0;exitX=0.498;exitY=0.675;exitDx=0;exitDy=0;strokeColor=#FF0000;exitPerimeter=0;entryX=0.5;entryY=0;entryDx=0;entryDy=0;" parent="1" source="Bgbd8PivBBbhyu42Q39o-57" target="Bgbd8PivBBbhyu42Q39o-66" edge="1">
          <mxGeometry width="50" height="50" relative="1" as="geometry">
            <mxPoint x="638" y="514" as="sourcePoint" />
            <mxPoint x="638" y="541" as="targetPoint" />
            <Array as="points">
              <mxPoint x="530" y="530" />
              <mxPoint x="880" y="530" />
            </Array>
          </mxGeometry>
        </mxCell>
        <mxCell id="Bgbd8PivBBbhyu42Q39o-74" value="" style="endArrow=classic;html=1;rounded=0;exitX=1;exitY=0.5;exitDx=0;exitDy=0;strokeColor=#FF0000;entryX=0;entryY=0.5;entryDx=0;entryDy=0;" parent="1" source="Bgbd8PivBBbhyu42Q39o-72" target="Bgbd8PivBBbhyu42Q39o-78" edge="1">
          <mxGeometry width="50" height="50" relative="1" as="geometry">
            <mxPoint x="445" y="514" as="sourcePoint" />
            <mxPoint x="420" y="704" as="targetPoint" />
            <Array as="points" />
          </mxGeometry>
        </mxCell>
        <mxCell id="Bgbd8PivBBbhyu42Q39o-79" value="" style="endArrow=classic;html=1;rounded=0;exitX=0.5;exitY=1;exitDx=0;exitDy=0;strokeColor=#FF0000;entryX=0.5;entryY=0;entryDx=0;entryDy=0;" parent="1" source="Bgbd8PivBBbhyu42Q39o-78" target="1uhrgHvxH36PsTR4rErv-25" edge="1">
          <mxGeometry width="50" height="50" relative="1" as="geometry">
            <mxPoint x="510" y="741" as="sourcePoint" />
            <mxPoint x="520" y="761" as="targetPoint" />
            <Array as="points">
              <mxPoint x="525" y="750" />
              <mxPoint x="890" y="750" />
            </Array>
          </mxGeometry>
        </mxCell>
        <mxCell id="Bgbd8PivBBbhyu42Q39o-82" value="" style="endArrow=classic;html=1;rounded=0;strokeColor=#FF0000;entryX=0.5;entryY=0;entryDx=0;entryDy=0;exitX=0.485;exitY=0.983;exitDx=0;exitDy=0;exitPerimeter=0;" parent="1" source="Bgbd8PivBBbhyu42Q39o-80" target="Bgbd8PivBBbhyu42Q39o-83" edge="1">
          <mxGeometry width="50" height="50" relative="1" as="geometry">
            <mxPoint x="150" y="840" as="sourcePoint" />
            <mxPoint x="520" y="831" as="targetPoint" />
            <Array as="points">
              <mxPoint x="178" y="860" />
              <mxPoint x="535" y="860" />
            </Array>
          </mxGeometry>
        </mxCell>
        <mxCell id="Bgbd8PivBBbhyu42Q39o-88" value="" style="endArrow=classic;html=1;rounded=0;exitX=0.25;exitY=0.5;exitDx=0;exitDy=0;strokeColor=#FF0000;exitPerimeter=0;" parent="1" source="Bgbd8PivBBbhyu42Q39o-87" edge="1">
          <mxGeometry width="50" height="50" relative="1" as="geometry">
            <mxPoint x="545" y="901" as="sourcePoint" />
            <mxPoint x="-230" y="961" as="targetPoint" />
            <Array as="points">
              <mxPoint x="475" y="941" />
              <mxPoint x="-230" y="941" />
            </Array>
          </mxGeometry>
        </mxCell>
        <mxCell id="Bgbd8PivBBbhyu42Q39o-89" value="" style="endArrow=classic;html=1;rounded=0;exitX=0.75;exitY=0.5;exitDx=0;exitDy=0;strokeColor=#FF0000;exitPerimeter=0;" parent="1" source="Bgbd8PivBBbhyu42Q39o-87" edge="1">
          <mxGeometry width="50" height="50" relative="1" as="geometry">
            <mxPoint x="555" y="911" as="sourcePoint" />
            <mxPoint x="880" y="961" as="targetPoint" />
            <Array as="points">
              <mxPoint x="605" y="941" />
              <mxPoint x="880" y="941" />
            </Array>
          </mxGeometry>
        </mxCell>
        <mxCell id="1uhrgHvxH36PsTR4rErv-26" value="" style="endArrow=classic;html=1;rounded=0;exitX=0;exitY=0.75;exitDx=0;exitDy=0;strokeColor=#FF0000;entryX=0.5;entryY=0;entryDx=0;entryDy=0;" parent="1" source="1uhrgHvxH36PsTR4rErv-25" target="Bgbd8PivBBbhyu42Q39o-80" edge="1">
          <mxGeometry width="50" height="50" relative="1" as="geometry">
            <mxPoint x="770" y="860" as="sourcePoint" />
            <mxPoint x="770" y="887" as="targetPoint" />
            <Array as="points">
              <mxPoint x="180" y="785" />
            </Array>
          </mxGeometry>
        </mxCell>
        <mxCell id="VyiluhZ5Dq6EPo_tm9ve-6" value="&lt;font style=&quot;font-size: 36px;&quot;&gt;&lt;b&gt;Sơ đồ hoạt động lý tưởng&lt;/b&gt;&lt;/font&gt;" style="rounded=1;whiteSpace=wrap;html=1;" vertex="1" parent="1">
          <mxGeometry x="90" y="10" width="460" height="82" as="geometry" />
        </mxCell>
      </root>
    </mxGraphModel>
  </diagram>
  <diagram id="RDm4uXsdEUzz0pSrdu_J" name="Activitty-2">
    <mxGraphModel dx="2566" dy="1252" grid="1" gridSize="10" guides="1" tooltips="1" connect="1" arrows="1" fold="1" page="1" pageScale="1" pageWidth="850" pageHeight="1100" math="0" shadow="0">
      <root>
        <mxCell id="0" />
        <mxCell id="1" parent="0" />
        <mxCell id="Tw9yj4QLcLBgMUf4Sma_-1" value="Tài xế" style="swimlane;whiteSpace=wrap;startSize=32;" vertex="1" parent="1">
          <mxGeometry x="65" y="128" width="350" height="1012" as="geometry" />
        </mxCell>
        <mxCell id="Tw9yj4QLcLBgMUf4Sma_-2" value="" style="ellipse;shape=startState;fillColor=#000000;strokeColor=#ff0000;" vertex="1" parent="Tw9yj4QLcLBgMUf4Sma_-1">
          <mxGeometry x="140" y="67" width="30" height="30" as="geometry" />
        </mxCell>
        <mxCell id="Tw9yj4QLcLBgMUf4Sma_-3" value="Khởi hành" style="rounded=1;whiteSpace=wrap;html=1;" vertex="1" parent="Tw9yj4QLcLBgMUf4Sma_-1">
          <mxGeometry x="100" y="115" width="110" height="30" as="geometry" />
        </mxCell>
        <mxCell id="Tw9yj4QLcLBgMUf4Sma_-4" value="" style="edgeStyle=elbowEdgeStyle;elbow=vertical;verticalAlign=bottom;endArrow=open;endSize=8;strokeColor=#FF0000;endFill=1;rounded=0;exitX=0.5;exitY=1;exitDx=0;exitDy=0;entryX=0.5;entryY=0;entryDx=0;entryDy=0;" edge="1" parent="Tw9yj4QLcLBgMUf4Sma_-1" source="Tw9yj4QLcLBgMUf4Sma_-3" target="Tw9yj4QLcLBgMUf4Sma_-5">
          <mxGeometry x="169" y="24" as="geometry">
            <mxPoint x="156" y="167" as="targetPoint" />
            <mxPoint x="164" y="98.99999999999989" as="sourcePoint" />
          </mxGeometry>
        </mxCell>
        <mxCell id="Tw9yj4QLcLBgMUf4Sma_-5" value="Học sinh bị trễ&lt;div&gt;xe không?&lt;/div&gt;" style="rhombus;whiteSpace=wrap;html=1;fontColor=#000000;fillColor=#ffffc0;strokeColor=#ff0000;" vertex="1" parent="Tw9yj4QLcLBgMUf4Sma_-1">
          <mxGeometry x="97" y="162" width="116" height="70" as="geometry" />
        </mxCell>
        <mxCell id="Tw9yj4QLcLBgMUf4Sma_-6" value="Báo cáo trễ xe" style="rounded=1;whiteSpace=wrap;html=1;" vertex="1" parent="Tw9yj4QLcLBgMUf4Sma_-1">
          <mxGeometry x="200" y="232" width="120" height="28" as="geometry" />
        </mxCell>
        <mxCell id="Tw9yj4QLcLBgMUf4Sma_-7" value="Tiếp tục hành trình" style="rounded=1;whiteSpace=wrap;html=1;" vertex="1" parent="Tw9yj4QLcLBgMUf4Sma_-1">
          <mxGeometry x="69.75" y="522" width="190.5" height="28" as="geometry" />
        </mxCell>
        <mxCell id="Tw9yj4QLcLBgMUf4Sma_-8" value="" style="rhombus;whiteSpace=wrap;html=1;" vertex="1" parent="Tw9yj4QLcLBgMUf4Sma_-1">
          <mxGeometry x="150" y="472" width="30" height="30" as="geometry" />
        </mxCell>
        <mxCell id="Tw9yj4QLcLBgMUf4Sma_-9" value="no" style="edgeStyle=orthogonalEdgeStyle;html=1;align=left;verticalAlign=bottom;endArrow=open;endSize=8;strokeColor=#ff0000;rounded=0;exitX=0;exitY=0.5;exitDx=0;exitDy=0;entryX=0;entryY=0.5;entryDx=0;entryDy=0;" edge="1" parent="Tw9yj4QLcLBgMUf4Sma_-1" source="Tw9yj4QLcLBgMUf4Sma_-5" target="Tw9yj4QLcLBgMUf4Sma_-8">
          <mxGeometry x="-0.7441" y="-21" relative="1" as="geometry">
            <mxPoint x="70" y="442" as="targetPoint" />
            <mxPoint as="offset" />
          </mxGeometry>
        </mxCell>
        <mxCell id="Tw9yj4QLcLBgMUf4Sma_-10" value="" style="endArrow=classic;html=1;rounded=0;exitX=0.5;exitY=1;exitDx=0;exitDy=0;entryX=0.5;entryY=0;entryDx=0;entryDy=0;strokeColor=#FF0000;" edge="1" parent="Tw9yj4QLcLBgMUf4Sma_-1" source="Tw9yj4QLcLBgMUf4Sma_-8" target="Tw9yj4QLcLBgMUf4Sma_-7">
          <mxGeometry width="50" height="50" relative="1" as="geometry">
            <mxPoint x="480" y="462" as="sourcePoint" />
            <mxPoint x="530" y="412" as="targetPoint" />
          </mxGeometry>
        </mxCell>
        <mxCell id="Tw9yj4QLcLBgMUf4Sma_-11" value="phát sinh sự cố nghiêm trọng&lt;div&gt;không?&lt;/div&gt;" style="rhombus;whiteSpace=wrap;html=1;fontColor=#000000;fillColor=#ffffc0;strokeColor=#ff0000;" vertex="1" parent="Tw9yj4QLcLBgMUf4Sma_-1">
          <mxGeometry x="102.5" y="572" width="125" height="79" as="geometry" />
        </mxCell>
        <mxCell id="Tw9yj4QLcLBgMUf4Sma_-12" value="yes" style="edgeStyle=orthogonalEdgeStyle;html=1;align=left;verticalAlign=top;endArrow=open;endSize=8;strokeColor=#ff0000;rounded=0;exitX=1;exitY=0.5;exitDx=0;exitDy=0;entryX=0.5;entryY=0;entryDx=0;entryDy=0;" edge="1" parent="Tw9yj4QLcLBgMUf4Sma_-1" source="Tw9yj4QLcLBgMUf4Sma_-11" target="Tw9yj4QLcLBgMUf4Sma_-14">
          <mxGeometry x="-1" relative="1" as="geometry">
            <mxPoint x="270" y="692" as="targetPoint" />
          </mxGeometry>
        </mxCell>
        <mxCell id="Tw9yj4QLcLBgMUf4Sma_-13" value="" style="endArrow=classic;html=1;rounded=0;exitX=0.5;exitY=1;exitDx=0;exitDy=0;entryX=0.5;entryY=0;entryDx=0;entryDy=0;strokeColor=#FF0000;" edge="1" parent="Tw9yj4QLcLBgMUf4Sma_-1" source="Tw9yj4QLcLBgMUf4Sma_-7" target="Tw9yj4QLcLBgMUf4Sma_-11">
          <mxGeometry width="50" height="50" relative="1" as="geometry">
            <mxPoint x="480" y="572" as="sourcePoint" />
            <mxPoint x="530" y="522" as="targetPoint" />
          </mxGeometry>
        </mxCell>
        <mxCell id="Tw9yj4QLcLBgMUf4Sma_-14" value="Báo cáo sự cố" style="rounded=1;whiteSpace=wrap;html=1;" vertex="1" parent="Tw9yj4QLcLBgMUf4Sma_-1">
          <mxGeometry x="213" y="642" width="120" height="39" as="geometry" />
        </mxCell>
        <mxCell id="Tw9yj4QLcLBgMUf4Sma_-15" value="yes" style="edgeStyle=orthogonalEdgeStyle;html=1;align=left;verticalAlign=top;endArrow=open;endSize=8;strokeColor=#ff0000;rounded=0;exitX=1;exitY=0.5;exitDx=0;exitDy=0;entryX=0.536;entryY=0.03;entryDx=0;entryDy=0;entryPerimeter=0;" edge="1" parent="Tw9yj4QLcLBgMUf4Sma_-1" source="Tw9yj4QLcLBgMUf4Sma_-5" target="Tw9yj4QLcLBgMUf4Sma_-6">
          <mxGeometry x="-0.9273" y="25" relative="1" as="geometry">
            <mxPoint x="260" y="272" as="targetPoint" />
            <mxPoint as="offset" />
          </mxGeometry>
        </mxCell>
        <mxCell id="Tw9yj4QLcLBgMUf4Sma_-16" value="" style="rhombus;whiteSpace=wrap;html=1;" vertex="1" parent="Tw9yj4QLcLBgMUf4Sma_-1">
          <mxGeometry x="155" y="852" width="35" height="38" as="geometry" />
        </mxCell>
        <mxCell id="Tw9yj4QLcLBgMUf4Sma_-17" value="no" style="edgeStyle=orthogonalEdgeStyle;html=1;align=left;verticalAlign=bottom;endArrow=open;endSize=8;strokeColor=#ff0000;rounded=0;exitX=0;exitY=0.5;exitDx=0;exitDy=0;entryX=0;entryY=0.5;entryDx=0;entryDy=0;" edge="1" parent="Tw9yj4QLcLBgMUf4Sma_-1" source="Tw9yj4QLcLBgMUf4Sma_-11" target="Tw9yj4QLcLBgMUf4Sma_-16">
          <mxGeometry x="-0.8377" y="-23" relative="1" as="geometry">
            <mxPoint x="90" y="802" as="targetPoint" />
            <mxPoint as="offset" />
          </mxGeometry>
        </mxCell>
        <mxCell id="Tw9yj4QLcLBgMUf4Sma_-18" value="Tiếp tục hành trình" style="rounded=1;whiteSpace=wrap;html=1;" vertex="1" parent="Tw9yj4QLcLBgMUf4Sma_-1">
          <mxGeometry x="102.5" y="912" width="140" height="28" as="geometry" />
        </mxCell>
        <mxCell id="Tw9yj4QLcLBgMUf4Sma_-19" value="" style="endArrow=classic;html=1;rounded=0;exitX=0.5;exitY=1;exitDx=0;exitDy=0;entryX=0.5;entryY=0;entryDx=0;entryDy=0;strokeColor=#FF0000;" edge="1" parent="Tw9yj4QLcLBgMUf4Sma_-1" source="Tw9yj4QLcLBgMUf4Sma_-16" target="Tw9yj4QLcLBgMUf4Sma_-18">
          <mxGeometry width="50" height="50" relative="1" as="geometry">
            <mxPoint x="130" y="872" as="sourcePoint" />
            <mxPoint x="175" y="932" as="targetPoint" />
          </mxGeometry>
        </mxCell>
        <mxCell id="Tw9yj4QLcLBgMUf4Sma_-20" value="" style="ellipse;html=1;shape=endState;fillColor=#000000;strokeColor=#ff0000;" vertex="1" parent="Tw9yj4QLcLBgMUf4Sma_-1">
          <mxGeometry x="157" y="962" width="30" height="30" as="geometry" />
        </mxCell>
        <mxCell id="Tw9yj4QLcLBgMUf4Sma_-21" value="" style="endArrow=classic;html=1;rounded=0;exitX=0.5;exitY=1;exitDx=0;exitDy=0;entryX=0.5;entryY=0;entryDx=0;entryDy=0;strokeColor=#FF0000;" edge="1" parent="Tw9yj4QLcLBgMUf4Sma_-1" source="Tw9yj4QLcLBgMUf4Sma_-18" target="Tw9yj4QLcLBgMUf4Sma_-20">
          <mxGeometry width="50" height="50" relative="1" as="geometry">
            <mxPoint x="183" y="900" as="sourcePoint" />
            <mxPoint x="183" y="922" as="targetPoint" />
          </mxGeometry>
        </mxCell>
        <mxCell id="Tw9yj4QLcLBgMUf4Sma_-22" value="Phụ huynh" style="swimlane;whiteSpace=wrap;startSize=32;" vertex="1" parent="1">
          <mxGeometry x="805.5" y="128" width="280" height="1012" as="geometry" />
        </mxCell>
        <mxCell id="Tw9yj4QLcLBgMUf4Sma_-23" value="Nhận cảnh báo trễ xe" style="rounded=1;whiteSpace=wrap;html=1;" vertex="1" parent="Tw9yj4QLcLBgMUf4Sma_-22">
          <mxGeometry x="39.5" y="362" width="190.5" height="28" as="geometry" />
        </mxCell>
        <mxCell id="Tw9yj4QLcLBgMUf4Sma_-24" value="Theo dõi hành trình&lt;span style=&quot;color: rgba(0, 0, 0, 0); font-family: monospace; font-size: 0px; text-align: start; text-wrap-mode: nowrap;&quot;&gt;%3CmxGraphModel%3E%3Croot%3E%3CmxCell%20id%3D%220%22%2F%3E%3CmxCell%20id%3D%221%22%20parent%3D%220%22%2F%3E%3CmxCell%20id%3D%222%22%20value%3D%22Nh%E1%BA%ADn%20c%E1%BA%A3nh%20b%C3%A1o%20tr%E1%BB%85%20xe%22%20style%3D%22rounded%3D1%3BwhiteSpace%3Dwrap%3Bhtml%3D1%3B%22%20vertex%3D%221%22%20parent%3D%221%22%3E%3CmxGeometry%20x%3D%22770%22%20y%3D%22530%22%20width%3D%22190.5%22%20height%3D%2228%22%20as%3D%22geometry%22%2F%3E%3C%2FmxCell%3E%3C%2Froot%3E%3C%2FmxGraphModel%3E&lt;/span&gt;" style="rounded=1;whiteSpace=wrap;html=1;" vertex="1" parent="Tw9yj4QLcLBgMUf4Sma_-22">
          <mxGeometry x="39.5" y="412" width="190.5" height="28" as="geometry" />
        </mxCell>
        <mxCell id="Tw9yj4QLcLBgMUf4Sma_-25" value="Nhận thông báo" style="rounded=1;whiteSpace=wrap;html=1;" vertex="1" parent="Tw9yj4QLcLBgMUf4Sma_-22">
          <mxGeometry x="59.5" y="832" width="140" height="28" as="geometry" />
        </mxCell>
        <mxCell id="Tw9yj4QLcLBgMUf4Sma_-37" value="" style="endArrow=classic;html=1;rounded=0;exitX=0.5;exitY=1;exitDx=0;exitDy=0;entryX=0.5;entryY=0;entryDx=0;entryDy=0;strokeColor=#FF0000;" edge="1" parent="Tw9yj4QLcLBgMUf4Sma_-22" source="Tw9yj4QLcLBgMUf4Sma_-23" target="Tw9yj4QLcLBgMUf4Sma_-24">
          <mxGeometry width="50" height="50" relative="1" as="geometry">
            <mxPoint x="-140.5" y="502" as="sourcePoint" />
            <mxPoint x="-90.5" y="452" as="targetPoint" />
          </mxGeometry>
        </mxCell>
        <mxCell id="Tw9yj4QLcLBgMUf4Sma_-26" value="Hệ thống" style="swimlane;whiteSpace=wrap;startSize=32;" vertex="1" parent="1">
          <mxGeometry x="415" y="128" width="390" height="1012" as="geometry" />
        </mxCell>
        <mxCell id="Tw9yj4QLcLBgMUf4Sma_-27" value="Thông báo phụ huynh" style="rounded=1;whiteSpace=wrap;html=1;" vertex="1" parent="Tw9yj4QLcLBgMUf4Sma_-26">
          <mxGeometry x="90" y="292" width="140" height="38" as="geometry" />
        </mxCell>
        <mxCell id="Tw9yj4QLcLBgMUf4Sma_-28" value="Xử lý sự cố" style="rounded=1;whiteSpace=wrap;html=1;" vertex="1" parent="Tw9yj4QLcLBgMUf4Sma_-26">
          <mxGeometry x="123" y="712" width="135" height="28" as="geometry" />
        </mxCell>
        <mxCell id="Tw9yj4QLcLBgMUf4Sma_-29" value="Thông báo phụ huynh" style="rounded=1;whiteSpace=wrap;html=1;" vertex="1" parent="Tw9yj4QLcLBgMUf4Sma_-26">
          <mxGeometry x="120.5" y="762" width="140" height="28" as="geometry" />
        </mxCell>
        <mxCell id="Tw9yj4QLcLBgMUf4Sma_-30" value="" style="endArrow=classic;html=1;rounded=0;exitX=0.5;exitY=1;exitDx=0;exitDy=0;entryX=0.5;entryY=0;entryDx=0;entryDy=0;strokeColor=#FF0000;" edge="1" parent="Tw9yj4QLcLBgMUf4Sma_-26" source="Tw9yj4QLcLBgMUf4Sma_-28" target="Tw9yj4QLcLBgMUf4Sma_-29">
          <mxGeometry width="50" height="50" relative="1" as="geometry">
            <mxPoint x="250" y="852" as="sourcePoint" />
            <mxPoint x="300" y="802" as="targetPoint" />
          </mxGeometry>
        </mxCell>
        <mxCell id="Tw9yj4QLcLBgMUf4Sma_-31" value="" style="endArrow=classic;html=1;rounded=0;exitX=0.5;exitY=1;exitDx=0;exitDy=0;strokeColor=#FF0000;" edge="1" parent="1" source="Tw9yj4QLcLBgMUf4Sma_-6" target="Tw9yj4QLcLBgMUf4Sma_-27">
          <mxGeometry width="50" height="50" relative="1" as="geometry">
            <mxPoint x="525" y="400" as="sourcePoint" />
            <mxPoint x="575" y="460" as="targetPoint" />
            <Array as="points">
              <mxPoint x="325" y="400" />
              <mxPoint x="575" y="400" />
            </Array>
          </mxGeometry>
        </mxCell>
        <mxCell id="Tw9yj4QLcLBgMUf4Sma_-32" value="" style="edgeStyle=orthogonalEdgeStyle;html=1;align=left;verticalAlign=bottom;endArrow=open;endSize=8;strokeColor=#ff0000;rounded=0;exitX=0.462;exitY=1;exitDx=0;exitDy=0;exitPerimeter=0;entryX=0.5;entryY=0;entryDx=0;entryDy=0;" edge="1" parent="1" source="Tw9yj4QLcLBgMUf4Sma_-27" target="Tw9yj4QLcLBgMUf4Sma_-23">
          <mxGeometry x="-0.7423" y="-21" relative="1" as="geometry">
            <mxPoint x="905" y="530" as="targetPoint" />
            <mxPoint x="173" y="355" as="sourcePoint" />
            <mxPoint as="offset" />
          </mxGeometry>
        </mxCell>
        <mxCell id="Tw9yj4QLcLBgMUf4Sma_-33" value="" style="edgeStyle=elbowEdgeStyle;elbow=vertical;verticalAlign=bottom;endArrow=open;endSize=8;strokeColor=#FF0000;endFill=1;rounded=0;exitX=0.5;exitY=1;exitDx=0;exitDy=0;entryX=0.5;entryY=0;entryDx=0;entryDy=0;" edge="1" parent="1" source="Tw9yj4QLcLBgMUf4Sma_-24" target="Tw9yj4QLcLBgMUf4Sma_-8">
          <mxGeometry x="159" y="152" as="geometry">
            <mxPoint x="235" y="620" as="targetPoint" />
            <mxPoint x="229" y="226.9999999999999" as="sourcePoint" />
          </mxGeometry>
        </mxCell>
        <mxCell id="Tw9yj4QLcLBgMUf4Sma_-34" value="" style="endArrow=classic;html=1;rounded=0;exitX=0.5;exitY=1;exitDx=0;exitDy=0;entryX=0.5;entryY=0;entryDx=0;entryDy=0;strokeColor=#FF0000;" edge="1" parent="1" source="Tw9yj4QLcLBgMUf4Sma_-14" target="Tw9yj4QLcLBgMUf4Sma_-28">
          <mxGeometry width="50" height="50" relative="1" as="geometry">
            <mxPoint x="240" y="718" as="sourcePoint" />
            <mxPoint x="605" y="900" as="targetPoint" />
            <Array as="points">
              <mxPoint x="339" y="820" />
              <mxPoint x="606" y="820" />
            </Array>
          </mxGeometry>
        </mxCell>
        <mxCell id="Tw9yj4QLcLBgMUf4Sma_-35" value="" style="endArrow=classic;html=1;rounded=0;exitX=0.5;exitY=1;exitDx=0;exitDy=0;entryX=0.5;entryY=0;entryDx=0;entryDy=0;strokeColor=#FF0000;" edge="1" parent="1" source="Tw9yj4QLcLBgMUf4Sma_-29" target="Tw9yj4QLcLBgMUf4Sma_-25">
          <mxGeometry width="50" height="50" relative="1" as="geometry">
            <mxPoint x="349" y="848" as="sourcePoint" />
            <mxPoint x="618" y="890" as="targetPoint" />
            <Array as="points">
              <mxPoint x="606" y="940" />
              <mxPoint x="935" y="940" />
            </Array>
          </mxGeometry>
        </mxCell>
        <mxCell id="Tw9yj4QLcLBgMUf4Sma_-36" value="" style="endArrow=classic;html=1;rounded=0;exitX=0.5;exitY=1;exitDx=0;exitDy=0;entryX=1;entryY=0.5;entryDx=0;entryDy=0;strokeColor=#FF0000;" edge="1" parent="1" source="Tw9yj4QLcLBgMUf4Sma_-25" target="Tw9yj4QLcLBgMUf4Sma_-16">
          <mxGeometry width="50" height="50" relative="1" as="geometry">
            <mxPoint x="485" y="980" as="sourcePoint" />
            <mxPoint x="535" y="930" as="targetPoint" />
            <Array as="points">
              <mxPoint x="935" y="1000" />
              <mxPoint x="315" y="1000" />
            </Array>
          </mxGeometry>
        </mxCell>
        <mxCell id="Tw9yj4QLcLBgMUf4Sma_-38" value="" style="edgeStyle=elbowEdgeStyle;elbow=vertical;verticalAlign=bottom;endArrow=open;endSize=8;strokeColor=#FF0000;endFill=1;rounded=0;exitX=0.5;exitY=1;exitDx=0;exitDy=0;" edge="1" parent="1">
          <mxGeometry x="169" y="24" as="geometry">
            <mxPoint x="220" y="242" as="targetPoint" />
            <mxPoint x="220" y="222" as="sourcePoint" />
          </mxGeometry>
        </mxCell>
        <mxCell id="BgWzIVbIadK3XyCAPx93-1" value="&lt;font style=&quot;font-size: 36px;&quot;&gt;&lt;b&gt;Sơ đồ hoạt động khi có sự cố&lt;/b&gt;&lt;/font&gt;" style="rounded=1;whiteSpace=wrap;html=1;" vertex="1" parent="1">
          <mxGeometry x="265" y="10" width="540" height="82" as="geometry" />
        </mxCell>
      </root>
    </mxGraphModel>
  </diagram>
</mxfile>
